# xmcd CD database file
# Generated: Son Jun 15 14:01:22 2003 by KSCD
# 
# Track frame offsets:
#       150
#       13067
#       26527
#       43172
#       52910
#       66777
#       78240
#       93175
#       107385
#       119050
#       132775
#       146052
#       162877
#       173407
#       195570
#       210240
#       227040
#       238370
#       249827
#       263327
#       277015
#       286445
#       298587
#       312115
#       324852
#
# Disc length: 4389 seconds
#
# Revision: 2
# Processed by: cddbd v1.4PL0 Copyright (c) Steve Scherf et al.
# Submitted via: Kscd 1.3.3
#
DISCID=53112319
DTITLE=Handpicked - I'm An Old Cowhand
DYEAR=1900
DGENRE=
TTITLE0=Ghost Riders In The Sky
TTITLE1=Seven Bridges Road
TTITLE2=Cool Water
TTITLE3=That's How The Yodel Was Born
TTITLE4=Red River Valley
TTITLE5=Back In The Saddle Again
TTITLE6=Over Easy
TTITLE7=Tumbling Tumbleweeds
TTITLE8=Rawhide
TTITLE9=Crazy Love
TTITLE10=Ain't Nobody Here But Us Chickens
TTITLE11=Home On The Range
TTITLE12=Bear Tracks
TTITLE13=Wild Horses
TTITLE14=Texas Plains
TTITLE15=Get Along Little Dogies
TTITLE16=Duelin' Banjos
TTITLE17=San Antonio Rose
TTITLE18=I've Got Spurs
TTITLE19=I'm An Old Cowhand
TTITLE20=Foggy Mountain Breakdown
TTITLE21=Don't Fence Me In
TTITLE22=Orange Blossom Special
TTITLE23=Cowboy Lullaby
TTITLE24=Happy Trails
EXTD=
EXTT0=
EXTT1=
EXTT2=
EXTT3=
EXTT4=
EXTT5=
EXTT6=
EXTT7=
EXTT8=
EXTT9=
EXTT10=
EXTT11=
EXTT12=
EXTT13=
EXTT14=
EXTT15=
EXTT16=
EXTT17=
EXTT18=
EXTT19=
EXTT20=
EXTT21=
EXTT22=
EXTT23=
EXTT24=
PLAYORDER=
